# xmcd
#
# Track frame offsets: 
#        150
#        17398
#        31530
#        49791
#        67110
#        84897
#        102011
#        118662
#        134341
#        148741
#        163514
#
# Disc length: 2438 seconds
#
# Revision: 0
# Processed by: cddbd v1.5.2PL0 Copyright (c) Steve Scherf et al.
# Submitted via: ExactAudioCopy v1.0b3
#
DISCID=8409840b
DTITLE=Nordica - Untitled (Covers)
DYEAR=2003
DGENRE=Country
TTITLE0=Got No Reason Now For Going Home
TTITLE1=Good Golly Miss Molly
TTITLE2=Livin' On Love
TTITLE3=Hey, Tonight
TTITLE4=Heart of Hearts
TTITLE5=Two Timin' Me
TTITLE6=Walk On Faith
TTITLE7=Summertime Blues
TTITLE8=Love On The Loose, Heart On The Run
TTITLE9=Johnny B. Goode
TTITLE10=Proud Mary
EXTD=
EXTT0=
EXTT1=
EXTT2=
EXTT3=
EXTT4=
EXTT5=
EXTT6=
EXTT7=
EXTT8=
EXTT9=
EXTT10=
PLAYORDER=
